{
	"asset":{
		"generator":"Khronos glTF Blender I/O v4.5.48",
		"version":"2.0"
	},
	"scene":0,
	"scenes":[
		{
			"name":"Scene",
			"nodes":[
				7
			]
		}
	],
	"nodes":[
		{
			"mesh":0,
			"name":"defaultMaterial"
		},
		{
			"mesh":1,
			"name":"defaultMaterial.001"
		},
		{
			"mesh":2,
			"name":"defaultMaterial.002"
		},
		{
			"mesh":3,
			"name":"defaultMaterial.003"
		},
		{
			"mesh":4,
			"name":"defaultMaterial.004"
		},
		{
			"children":[
				0,
				1,
				2,
				3,
				4
			],
			"name":"Merged_Legs_Remesh3"
		},
		{
			"children":[
				5
			],
			"name":"Collada visual scene group",
			"rotation":[
				0.70710688829422,
				0,
				0,
				0.7071066498756409
			]
		},
		{
			"children":[
				6
			],
			"name":"Sketchfab_model",
			"rotation":[
				-0.70710688829422,
				0,
				0,
				0.7071066498756409
			],
			"translation":[
				-6.675473690032959,
				4.1037492752075195,
				-4.126101493835449
			]
		}
	],
	"materials":[
		{
			"doubleSided":true,
			"name":"Merged_Legs_Remesh30",
			"normalTexture":{
				"index":0
			},
			"occlusionTexture":{
				"index":1
			},
			"pbrMetallicRoughness":{
				"baseColorTexture":{
					"index":2
				},
				"metallicRoughnessTexture":{
					"index":1
				}
			}
		},
		{
			"doubleSided":true,
			"name":"Merged_Legs_Remesh31",
			"normalTexture":{
				"index":3
			},
			"occlusionTexture":{
				"index":4
			},
			"pbrMetallicRoughness":{
				"baseColorTexture":{
					"index":5
				},
				"metallicRoughnessTexture":{
					"index":4
				}
			}
		},
		{
			"doubleSided":true,
			"name":"Merged_Legs_Remesh32",
			"normalTexture":{
				"index":6
			},
			"occlusionTexture":{
				"index":7
			},
			"pbrMetallicRoughness":{
				"baseColorTexture":{
					"index":8
				},
				"metallicRoughnessTexture":{
					"index":7
				}
			}
		},
		{
			"doubleSided":true,
			"name":"Merged_Legs_Remesh33",
			"normalTexture":{
				"index":9
			},
			"occlusionTexture":{
				"index":10
			},
			"pbrMetallicRoughness":{
				"baseColorTexture":{
					"index":11
				},
				"metallicRoughnessTexture":{
					"index":10
				}
			}
		},
		{
			"doubleSided":true,
			"name":"Merged_Legs_Remesh34",
			"normalTexture":{
				"index":12
			},
			"occlusionTexture":{
				"index":13
			},
			"pbrMetallicRoughness":{
				"baseColorTexture":{
					"index":14
				},
				"metallicRoughnessTexture":{
					"index":13
				}
			}
		}
	],
	"meshes":[
		{
			"name":"defaultMaterial",
			"primitives":[
				{
					"attributes":{
						"POSITION":0,
						"NORMAL":1,
						"TEXCOORD_0":2
					},
					"indices":3,
					"material":0
				}
			]
		},
		{
			"name":"defaultMaterial.001",
			"primitives":[
				{
					"attributes":{
						"POSITION":4,
						"NORMAL":5,
						"TEXCOORD_0":6
					},
					"indices":7,
					"material":1
				}
			]
		},
		{
			"name":"defaultMaterial.002",
			"primitives":[
				{
					"attributes":{
						"POSITION":8,
						"NORMAL":9,
						"TEXCOORD_0":10
					},
					"indices":11,
					"material":2
				}
			]
		},
		{
			"name":"defaultMaterial.003",
			"primitives":[
				{
					"attributes":{
						"POSITION":12,
						"NORMAL":13,
						"TEXCOORD_0":14
					},
					"indices":15,
					"material":3
				}
			]
		},
		{
			"name":"defaultMaterial.004",
			"primitives":[
				{
					"attributes":{
						"POSITION":16,
						"NORMAL":17,
						"TEXCOORD_0":18
					},
					"indices":19,
					"material":4
				}
			]
		}
	],
	"textures":[
		{
			"sampler":0,
			"source":0
		},
		{
			"sampler":0,
			"source":1
		},
		{
			"sampler":0,
			"source":2
		},
		{
			"sampler":0,
			"source":3
		},
		{
			"sampler":0,
			"source":4
		},
		{
			"sampler":0,
			"source":5
		},
		{
			"sampler":0,
			"source":6
		},
		{
			"sampler":0,
			"source":7
		},
		{
			"sampler":0,
			"source":8
		},
		{
			"sampler":0,
			"source":9
		},
		{
			"sampler":0,
			"source":10
		},
		{
			"sampler":0,
			"source":11
		},
		{
			"sampler":0,
			"source":12
		},
		{
			"sampler":0,
			"source":13
		},
		{
			"sampler":0,
			"source":14
		}
	],
	"images":[
		{
			"mimeType":"image/png",
			"name":"Merged_Legs_Remesh30_normal",
			"uri":"Merged_Legs_Remesh30_normal.png"
		},
		{
			"mimeType":"image/png",
			"name":"Merged_Legs_Remesh30_metallicRoughness",
			"uri":"Merged_Legs_Remesh30_metallicRoughness.png"
		},
		{
			"mimeType":"image/jpeg",
			"name":"Merged_Legs_Remesh30_baseColor",
			"uri":"Merged_Legs_Remesh30_baseColor.jpg"
		},
		{
			"mimeType":"image/png",
			"name":"Merged_Legs_Remesh31_normal",
			"uri":"Merged_Legs_Remesh31_normal.png"
		},
		{
			"mimeType":"image/png",
			"name":"Merged_Legs_Remesh31_metallicRoughness",
			"uri":"Merged_Legs_Remesh31_metallicRoughness.png"
		},
		{
			"mimeType":"image/jpeg",
			"name":"Merged_Legs_Remesh31_baseColor",
			"uri":"Merged_Legs_Remesh31_baseColor.jpg"
		},
		{
			"mimeType":"image/png",
			"name":"Merged_Legs_Remesh32_normal",
			"uri":"Merged_Legs_Remesh32_normal.png"
		},
		{
			"mimeType":"image/png",
			"name":"Merged_Legs_Remesh32_metallicRoughness",
			"uri":"Merged_Legs_Remesh32_metallicRoughness.png"
		},
		{
			"mimeType":"image/jpeg",
			"name":"Merged_Legs_Remesh32_baseColor",
			"uri":"Merged_Legs_Remesh32_baseColor.jpg"
		},
		{
			"mimeType":"image/png",
			"name":"Merged_Legs_Remesh33_normal",
			"uri":"Merged_Legs_Remesh33_normal.png"
		},
		{
			"mimeType":"image/png",
			"name":"Merged_Legs_Remesh33_metallicRoughness",
			"uri":"Merged_Legs_Remesh33_metallicRoughness.png"
		},
		{
			"mimeType":"image/jpeg",
			"name":"Merged_Legs_Remesh33_baseColor",
			"uri":"Merged_Legs_Remesh33_baseColor.jpg"
		},
		{
			"mimeType":"image/png",
			"name":"Merged_Legs_Remesh34_normal",
			"uri":"Merged_Legs_Remesh34_normal.png"
		},
		{
			"mimeType":"image/png",
			"name":"Merged_Legs_Remesh34_metallicRoughness",
			"uri":"Merged_Legs_Remesh34_metallicRoughness.png"
		},
		{
			"mimeType":"image/jpeg",
			"name":"Merged_Legs_Remesh34_baseColor",
			"uri":"Merged_Legs_Remesh34_baseColor.jpg"
		}
	],
	"accessors":[
		{
			"bufferView":0,
			"componentType":5126,
			"count":5230,
			"max":[
				0.46566298604011536,
				0.9564740061759949,
				1.155411958694458
			],
			"min":[
				-3.5221641063690186,
				-2.1300370693206787,
				-1.1608350276947021
			],
			"type":"VEC3"
		},
		{
			"bufferView":1,
			"componentType":5126,
			"count":5230,
			"type":"VEC3"
		},
		{
			"bufferView":2,
			"componentType":5126,
			"count":5230,
			"type":"VEC2"
		},
		{
			"bufferView":3,
			"componentType":5123,
			"count":29208,
			"type":"SCALAR"
		},
		{
			"bufferView":4,
			"componentType":5126,
			"count":258,
			"max":[
				-1.1149970293045044,
				-1.1542149782180786,
				0.5209019780158997
			],
			"min":[
				-1.4041229486465454,
				-1.4457950592041016,
				-0.5209029912948608
			],
			"type":"VEC3"
		},
		{
			"bufferView":5,
			"componentType":5126,
			"count":258,
			"type":"VEC3"
		},
		{
			"bufferView":6,
			"componentType":5126,
			"count":258,
			"type":"VEC2"
		},
		{
			"bufferView":7,
			"componentType":5123,
			"count":1440,
			"type":"SCALAR"
		},
		{
			"bufferView":8,
			"componentType":5126,
			"count":3398,
			"max":[
				4.9581379890441895,
				0.6464089751243591,
				1.585940957069397
			],
			"min":[
				0.5588889718055725,
				-1.150215983390808,
				-1.5841710567474365
			],
			"type":"VEC3"
		},
		{
			"bufferView":9,
			"componentType":5126,
			"count":3398,
			"type":"VEC3"
		},
		{
			"bufferView":10,
			"componentType":5126,
			"count":3398,
			"type":"VEC2"
		},
		{
			"bufferView":11,
			"componentType":5123,
			"count":20016,
			"type":"SCALAR"
		},
		{
			"bufferView":12,
			"componentType":5126,
			"count":2201,
			"max":[
				4.589145183563232,
				0.5459089875221252,
				1.396751046180725
			],
			"min":[
				-0.8736060261726379,
				-1.9048199653625488,
				-1.3926520347595215
			],
			"type":"VEC3"
		},
		{
			"bufferView":13,
			"componentType":5126,
			"count":2201,
			"type":"VEC3"
		},
		{
			"bufferView":14,
			"componentType":5126,
			"count":2201,
			"type":"VEC2"
		},
		{
			"bufferView":15,
			"componentType":5123,
			"count":13008,
			"type":"SCALAR"
		},
		{
			"bufferView":16,
			"componentType":5126,
			"count":4449,
			"max":[
				6.046325206756592,
				-1.2859959602355957,
				2.2720720767974854
			],
			"min":[
				-1.8549350500106812,
				-3.061108112335205,
				-2.259183883666992
			],
			"type":"VEC3"
		},
		{
			"bufferView":17,
			"componentType":5126,
			"count":4449,
			"type":"VEC3"
		},
		{
			"bufferView":18,
			"componentType":5126,
			"count":4449,
			"type":"VEC2"
		},
		{
			"bufferView":19,
			"componentType":5123,
			"count":24168,
			"type":"SCALAR"
		}
	],
	"bufferViews":[
		{
			"buffer":0,
			"byteLength":62760,
			"byteOffset":0,
			"target":34962
		},
		{
			"buffer":0,
			"byteLength":62760,
			"byteOffset":62760,
			"target":34962
		},
		{
			"buffer":0,
			"byteLength":41840,
			"byteOffset":125520,
			"target":34962
		},
		{
			"buffer":0,
			"byteLength":58416,
			"byteOffset":167360,
			"target":34963
		},
		{
			"buffer":0,
			"byteLength":3096,
			"byteOffset":225776,
			"target":34962
		},
		{
			"buffer":0,
			"byteLength":3096,
			"byteOffset":228872,
			"target":34962
		},
		{
			"buffer":0,
			"byteLength":2064,
			"byteOffset":231968,
			"target":34962
		},
		{
			"buffer":0,
			"byteLength":2880,
			"byteOffset":234032,
			"target":34963
		},
		{
			"buffer":0,
			"byteLength":40776,
			"byteOffset":236912,
			"target":34962
		},
		{
			"buffer":0,
			"byteLength":40776,
			"byteOffset":277688,
			"target":34962
		},
		{
			"buffer":0,
			"byteLength":27184,
			"byteOffset":318464,
			"target":34962
		},
		{
			"buffer":0,
			"byteLength":40032,
			"byteOffset":345648,
			"target":34963
		},
		{
			"buffer":0,
			"byteLength":26412,
			"byteOffset":385680,
			"target":34962
		},
		{
			"buffer":0,
			"byteLength":26412,
			"byteOffset":412092,
			"target":34962
		},
		{
			"buffer":0,
			"byteLength":17608,
			"byteOffset":438504,
			"target":34962
		},
		{
			"buffer":0,
			"byteLength":26016,
			"byteOffset":456112,
			"target":34963
		},
		{
			"buffer":0,
			"byteLength":53388,
			"byteOffset":482128,
			"target":34962
		},
		{
			"buffer":0,
			"byteLength":53388,
			"byteOffset":535516,
			"target":34962
		},
		{
			"buffer":0,
			"byteLength":35592,
			"byteOffset":588904,
			"target":34962
		},
		{
			"buffer":0,
			"byteLength":48336,
			"byteOffset":624496,
			"target":34963
		}
	],
	"samplers":[
		{
			"magFilter":9729,
			"minFilter":9987
		}
	],
	"buffers":[
		{
			"byteLength":672832,
			"uri":"beetle.bin"
		}
	]
}
